<?xml version="1.0" encoding="UTF-8" standalone="no"?>
<!-- Created with Inkscape (http://www.inkscape.org/) -->

<svg
   width="16"
   height="16"
   viewBox="0 0 16 16"
   version="1.1"
   id="svg5"
   inkscape:version="1.1.1 (3bf5ae0d25, 2021-09-20)"
   sodipodi:docname="file_type_hasflow-seed.svg"
   xmlns:inkscape="http://www.inkscape.org/namespaces/inkscape"
   xmlns:sodipodi="http://sodipodi.sourceforge.net/DTD/sodipodi-0.dtd"
   xmlns="http://www.w3.org/2000/svg"
   xmlns:svg="http://www.w3.org/2000/svg">
  <sodipodi:namedview
     id="namedview7"
     pagecolor="#ffffff"
     bordercolor="#666666"
     borderopacity="1.0"
     inkscape:pageshadow="2"
     inkscape:pageopacity="0.0"
     inkscape:pagecheckerboard="0"
     inkscape:document-units="px"
     showgrid="false"
     inkscape:zoom="13.1875"
     inkscape:cx="-9.3649289"
     inkscape:cy="5.4976303"
     inkscape:window-width="1852"
     inkscape:window-height="1016"
     inkscape:window-x="68"
     inkscape:window-y="27"
     inkscape:window-maximized="1"
     inkscape:current-layer="layer1" />
  <defs
     id="defs2" />
  <g
     inkscape:label="Layer 1"
     inkscape:groupmode="layer"
     id="layer1">
    <path
       style="fill:none;stroke:#6bdb65;stroke-width:1px;stroke-linecap:butt;stroke-linejoin:miter;stroke-opacity:1"
       d="m 8.0145466,6.1050439 c 0,0.464737 0.031189,2.3160308 0.031189,2.3160308 -1.5413158,0 -2.5123483,1.3487287 -2.7324526,2.1566393 -0.5306161,1.947666 0.4547933,3.568398 2.7346621,3.568398 2.2028649,0 3.2850609,-1.713896 2.7346619,-3.568398 C 10.536531,9.7485904 9.6498151,8.431785 8.0457356,8.431785 c 0,0 -0.031189,-1.8534535 -0.031189,-2.3267411 z"
       id="path1929"
       sodipodi:nodetypes="ccssscc" />
    <path
       style="fill:none;stroke:#6bdb65;stroke-width:1px;stroke-linecap:butt;stroke-linejoin:miter;stroke-opacity:1"
       d="m 8.0145466,6.1050439 c 0,-3.6239494 3.9422134,-3.9036593 3.9422134,-3.9036593 0,0 -0.293765,3.9036593 -3.9422134,3.9036593 z"
       id="path2021"
       sodipodi:nodetypes="ccc" />
    <path
       style="fill:none;stroke:#6bdb65;stroke-width:1px;stroke-linecap:butt;stroke-linejoin:miter;stroke-opacity:1"
       d="m 8.0071962,6.1050439 c 0,-3.6239494 -3.942214,-3.9036593 -3.942214,-3.9036593 0,0 -0.099547,3.9036593 3.942214,3.9036593 z"
       id="path2103"
       sodipodi:nodetypes="ccc" />
  </g>
</svg>
