<?xml version="1.0" encoding="UTF-8" standalone="no"?>
<!-- Created with Inkscape (http://www.inkscape.org/) -->

<svg
   width="16"
   height="16"
   viewBox="0 0 16 16"
   version="1.1"
   id="svg5"
   inkscape:version="1.3.1 (9b9bdc1480, 2023-11-25, custom)"
   sodipodi:docname="hasflow-model.svg"
   xmlns:inkscape="http://www.inkscape.org/namespaces/inkscape"
   xmlns:sodipodi="http://sodipodi.sourceforge.net/DTD/sodipodi-0.dtd"
   xmlns="http://www.w3.org/2000/svg"
   xmlns:svg="http://www.w3.org/2000/svg">
  <sodipodi:namedview
     id="namedview7"
     pagecolor="#ffffff"
     bordercolor="#666666"
     borderopacity="1.0"
     inkscape:pageshadow="2"
     inkscape:pageopacity="0.0"
     inkscape:pagecheckerboard="0"
     inkscape:document-units="px"
     showgrid="false"
     inkscape:zoom="10.455801"
     inkscape:cx="-1.5780713"
     inkscape:cy="-0.047820343"
     inkscape:window-width="1850"
     inkscape:window-height="1131"
     inkscape:window-x="70"
     inkscape:window-y="32"
     inkscape:window-maximized="1"
     inkscape:current-layer="layer1"
     inkscape:showpageshadow="2"
     inkscape:deskcolor="#d1d1d1" />
  <defs
     id="defs2" />
  <g
     inkscape:label="Layer 1"
     inkscape:groupmode="layer"
     id="layer1">
    <path
       style="fill:#2897ff;fill-opacity:1;stroke:#2897ff;stroke-width:0.552791;stroke-dasharray:none;stroke-opacity:1"
       d="M 6.5072173,13.997408 C 4.4853684,13.756044 2.9861783,13.0968 2.580854,12.270859 2.4620215,12.028708 2.4562528,11.835009 2.4562528,8.0871246 c 0,-3.7478867 0.00576,-3.9415867 0.1246012,-4.1837367 0.389211,-0.7931064 1.8255396,-1.4481421 3.7454593,-1.7081112 0.8600457,-0.116454 3.0127334,-0.095215 3.8131187,0.037623 1.847789,0.3066682 3.098281,0.908263 3.472338,1.670489 0.118829,0.2421497 0.124603,0.4358497 0.124603,4.1837363 0,3.736841 -0.0061,3.942197 -0.123598,4.181663 -0.378267,0.770717 -1.82788,1.445916 -3.6391078,1.69502 -0.8072673,0.111029 -2.6668701,0.129054 -3.4664485,0.0336 z m 3.1452158,-0.75888 c 1.4842659,-0.154175 2.7602719,-0.632746 3.1607409,-1.185449 0.135481,-0.18697 0.147714,-0.270763 0.147714,-1.011173 v -0.752759 l -0.220325,0.178944 c -0.747055,0.606737 -2.664628,1.033436 -4.6442517,1.033436 -1.9796231,0 -3.897193,-0.426699 -4.6442492,-1.033436 L 3.2317359,10.289147 v 0.734614 c 0,0.871959 0.044096,1.015389 0.3965015,1.289683 1.0505408,0.817688 3.4745448,1.18992 6.0241957,0.925084 z m 0.4869989,-2.30131 c 1.320123,-0.222619 2.431259,-0.703701 2.700534,-1.1692315 0.09977,-0.1724723 0.120921,-0.3422731 0.120921,-0.9703897 V 8.1180822 L 12.574481,8.3567648 C 11.80871,8.8297834 10.593161,9.1355176 9.0017428,9.255377 6.9654548,9.4087421 4.6250187,9.01549 3.5926001,8.3465131 L 3.2317359,8.1126828 v 0.6722109 c 0,0.8963109 0.063357,1.0628246 0.5232152,1.3750803 0.5641929,0.383098 1.5258048,0.677902 2.7198359,0.833818 0.8716339,0.113828 2.8338393,0.08352 3.664645,-0.05657 z M 9.6529753,8.7388883 C 11.235201,8.5751094 12.541056,8.0641083 12.86691,7.4812236 12.93366,7.3618125 12.96088,7.1044404 12.96088,6.5927297 V 5.8723433 L 12.587937,6.077064 C 12.115895,6.3361803 11.035145,6.6675452 10.236726,6.7979628 9.3156845,6.9484101 7.4631831,6.9815129 6.5072173,6.8646057 5.2184152,6.7069972 4.1707044,6.414014 3.5042678,6.0248566 l -0.2725319,-0.1591414 2.398e-4,0.735722 c 2.725e-4,0.8550762 0.05583,0.9861265 0.564899,1.3327047 1.0712012,0.7292799 3.440158,1.0548239 5.856098,0.8047464 z M 9.2082918,6.1657368 C 11.89042,5.9202899 13.46832,5.0253559 12.813174,4.1211679 12.260243,3.3580483 10.396773,2.8587798 8.0963113,2.8574056 4.5446582,2.8553672 2.2531772,4.0620307 3.6518224,5.197974 4.5690639,5.9429343 7.0056292,6.3673079 9.2082918,6.1657368 Z"
       id="path1"
       sodipodi:nodetypes="sssssssscssssscssscsssssscssscssssssscssssccsssscss" />
  </g>
</svg>
