<?xml version="1.0" encoding="UTF-8" standalone="no"?>
<!-- Created with Inkscape (http://www.inkscape.org/) -->

<svg
   width="16"
   height="16"
   viewBox="0 0 16 16"
   version="1.1"
   id="svg5"
   inkscape:version="1.1.1 (3bf5ae0d25, 2021-09-20)"
   sodipodi:docname="hasflow-role.svg"
   xmlns:inkscape="http://www.inkscape.org/namespaces/inkscape"
   xmlns:sodipodi="http://sodipodi.sourceforge.net/DTD/sodipodi-0.dtd"
   xmlns="http://www.w3.org/2000/svg"
   xmlns:svg="http://www.w3.org/2000/svg">
  <sodipodi:namedview
     id="namedview7"
     pagecolor="#ffffff"
     bordercolor="#666666"
     borderopacity="1.0"
     inkscape:pageshadow="2"
     inkscape:pageopacity="0.0"
     inkscape:pagecheckerboard="0"
     inkscape:document-units="px"
     showgrid="false"
     inkscape:zoom="9.3249705"
     inkscape:cx="-6.809673"
     inkscape:cy="-0.5898142"
     inkscape:window-width="1852"
     inkscape:window-height="1016"
     inkscape:window-x="68"
     inkscape:window-y="27"
     inkscape:window-maximized="1"
     inkscape:current-layer="layer1" />
  <defs
     id="defs2" />
  <g
     inkscape:label="Layer 1"
     inkscape:groupmode="layer"
     id="layer1">
    <path
       style="color:#000000;fill:#25e2ff;fill-opacity:1;stroke-width:0.501803;stroke-linejoin:round;-inkscape-stroke:none"
       d="M 6.7035659,8.9362149 C 6.5867213,8.9365687 6.4917161,8.8711332 6.491582,8.790223 c 0,-1.1891598 0.3737375,-2.2860253 1.0411243,-2.9157549 0.3336904,-0.314865 0.7384987,-0.4975134 1.1694981,-0.4975134 0.430999,0 0.835805,0.1826484 1.169497,0.4975134 0.6673916,0.6297296 1.0399546,1.7265951 1.0399546,2.9157549 -1.42e-4,0.080587 -0.09444,0.1458939 -0.210821,0.1459919 H 8.7022004 Z"
       id="path1819"
       sodipodi:nodetypes="ccssscccc" />
    <g
       id="g1825"
       transform="matrix(0.60300436,0,0,0.60300436,3.3128465,1.4350507)"
       style="fill:#25e2ff;fill-opacity:1">
      <path
         style="color:#000000;fill:#25e2ff;fill-opacity:1;stroke-width:0.7;stroke-linejoin:round;-inkscape-stroke:none"
         d="M 10.194431,4.4912252 A 1.2714503,1.2714503 0 0 1 8.9229803,5.7626755 1.2714503,1.2714503 0 0 1 7.65153,4.4912252 1.2714503,1.2714503 0 0 1 8.9229803,3.219775 1.2714503,1.2714503 0 0 1 10.194431,4.4912252 Z"
         id="path1821" />
      <path
         style="color:#000000;fill:#25e2ff;fill-opacity:1;stroke-linejoin:round;-inkscape-stroke:none"
         d="m 8.9238281,2.8691406 c -0.8913557,0 -1.6230468,0.7316912 -1.6230469,1.6230469 0,0.8913558 0.7316912,1.6210938 1.6230469,1.6210937 0.891356,3e-7 1.6210939,-0.7297377 1.6210939,-1.6210937 0,-0.8913559 -0.729738,-1.6230472 -1.6210939,-1.6230469 z m 0,0.7011719 c 0.5130482,-2e-7 0.9199219,0.4088269 0.9199219,0.921875 0,0.5130482 -0.4068737,0.919922 -0.9199219,0.9199219 -0.513048,0 -0.921875,-0.4068738 -0.921875,-0.9199219 1e-7,-0.513048 0.408827,-0.921875 0.921875,-0.921875 z"
         id="path1823" />
    </g>
    <path
       style="color:#000000;fill:#d4ef00;fill-opacity:1;stroke-width:0.892366;stroke-linejoin:round;-inkscape-stroke:none"
       d="M 1.268686,13.87061 C 1.0626343,13.871243 0.8950483,13.753908 0.8947997,13.608833 0.8947996,11.476554 1.55395,9.5097672 2.7309973,8.3806006 3.3195208,7.8160172 4.0334624,7.4885107 4.7936043,7.4885107 c 0.7601417,0 1.4740832,0.3275065 2.0626067,0.8920899 1.1770469,1.1291668 1.8341214,3.0959534 1.8341214,5.2282324 -2.5e-4,0.144503 -0.1665684,0.261602 -0.3718099,0.261777 H 4.7936043 Z"
       id="path1811"
       sodipodi:nodetypes="ccssscccc" />
    <g
       id="g1817"
       transform="matrix(1.0634993,0,0,1.016445,-4.7114205,0.84389859)"
       style="fill:#d4ef00;fill-opacity:1">
      <path
         style="color:#000000;fill:#d4ef00;fill-opacity:1;stroke-width:0.7;stroke-linejoin:round;-inkscape-stroke:none"
         d="M 10.194431,4.4912252 A 1.2714503,1.2714503 0 0 1 8.9229803,5.7626755 1.2714503,1.2714503 0 0 1 7.65153,4.4912252 1.2714503,1.2714503 0 0 1 8.9229803,3.219775 1.2714503,1.2714503 0 0 1 10.194431,4.4912252 Z"
         id="path1813" />
      <path
         style="color:#000000;fill:#d4ef00;fill-opacity:1;stroke-linejoin:round;-inkscape-stroke:none"
         d="m 8.9238281,2.8691406 c -0.8913557,0 -1.6230468,0.7316912 -1.6230469,1.6230469 0,0.8913558 0.7316912,1.6210938 1.6230469,1.6210937 0.891356,3e-7 1.6210939,-0.7297377 1.6210939,-1.6210937 0,-0.8913559 -0.729738,-1.6230472 -1.6210939,-1.6230469 z m 0,0.7011719 c 0.5130482,-2e-7 0.9199219,0.4088269 0.9199219,0.921875 0,0.5130482 -0.4068737,0.919922 -0.9199219,0.9199219 -0.513048,0 -0.921875,-0.4068738 -0.921875,-0.9199219 1e-7,-0.513048 0.408827,-0.921875 0.921875,-0.921875 z"
         id="path1815" />
    </g>
    <path
       style="color:#000000;fill:#73bbff;fill-opacity:1;stroke-width:0.68225;stroke-linejoin:round;-inkscape-stroke:none"
       d="m 9.9273744,12.808577 c -0.155775,4.89e-4 -0.282472,-0.09023 -0.28266,-0.202399 0,-1.648617 0.4983226,-3.1692819 1.3881706,-4.0423227 0.44492,-0.4365202 0.984663,-0.6897391 1.559331,-0.6897391 0.574669,0 1.114415,0.2532189 1.559339,0.6897391 0.889852,0.8730408 1.386604,2.3937057 1.386604,4.0423227 -1.9e-4,0.111731 -0.125913,0.202265 -0.281091,0.202399 h -2.664852 z"
       id="path1290"
       sodipodi:nodetypes="ccssscccc" />
    <g
       id="path1184"
       transform="matrix(0.80400919,0,0,0.80400919,5.4063931,2.6182204)"
       style="fill:#73bbff;fill-opacity:1">
      <path
         style="color:#000000;fill:#73bbff;fill-opacity:1;stroke-width:0.7;stroke-linejoin:round;-inkscape-stroke:none"
         d="M 10.194431,4.4912252 A 1.2714503,1.2714503 0 0 1 8.9229803,5.7626755 1.2714503,1.2714503 0 0 1 7.65153,4.4912252 1.2714503,1.2714503 0 0 1 8.9229803,3.219775 1.2714503,1.2714503 0 0 1 10.194431,4.4912252 Z"
         id="path1294" />
      <path
         style="color:#000000;fill:#73bbff;fill-opacity:1;stroke-linejoin:round;-inkscape-stroke:none"
         d="m 8.9238281,2.8691406 c -0.8913557,0 -1.6230468,0.7316912 -1.6230469,1.6230469 0,0.8913558 0.7316912,1.6210938 1.6230469,1.6210937 0.891356,3e-7 1.6210939,-0.7297377 1.6210939,-1.6210937 0,-0.8913559 -0.729738,-1.6230472 -1.6210939,-1.6230469 z m 0,0.7011719 c 0.5130482,-2e-7 0.9199219,0.4088269 0.9199219,0.921875 0,0.5130482 -0.4068737,0.919922 -0.9199219,0.9199219 -0.513048,0 -0.921875,-0.4068738 -0.921875,-0.9199219 1e-7,-0.513048 0.408827,-0.921875 0.921875,-0.921875 z"
         id="path1296" />
    </g>
  </g>
</svg>
